<?xml version="1.0" encoding="UTF-8"?>
<svg version="1.1" xmlns="http://www.w3.org/2000/svg" width="707" height="353">
<path d="M0 0 C3.27066566 -0.08706892 6.54103365 -0.14041241 9.8125 -0.1875 C10.74126953 -0.21263672 11.67003906 -0.23777344 12.62695312 -0.26367188 C13.9659668 -0.27817383 13.9659668 -0.27817383 15.33203125 -0.29296875 C16.56530151 -0.31653442 16.56530151 -0.31653442 17.82348633 -0.34057617 C20.56599301 0.08856537 21.35789972 0.78911202 23 3 C23.81201172 4.98608398 23.81201172 4.98608398 24.4296875 7.24609375 C24.66502197 8.07737793 24.90035645 8.90866211 25.14282227 9.76513672 C25.50525024 11.08795654 25.50525024 11.08795654 25.875 12.4375 C27.81469112 19.21525742 29.94744562 25.69597835 32.78515625 32.16015625 C37.20333873 42.48819053 40.45612167 53.36836501 44 64 C44.33 42.88 44.66 21.76 45 0 C52.59 0 60.18 0 68 0 C68.74750549 3.73752745 69.11719631 6.45305797 69.08229065 10.15693665 C69.07525116 11.17350845 69.06821167 12.19008026 69.06095886 13.23745728 C69.04801285 14.34156952 69.03506683 15.44568176 69.02172852 16.58325195 C69.01212097 17.75441055 69.00251343 18.92556915 68.99261475 20.13221741 C68.95964982 24.00096699 68.91930767 27.86960277 68.87890625 31.73828125 C68.85460269 34.42156185 68.83070802 37.10484297 68.80735779 39.78813171 C68.75129536 46.12746717 68.68992382 52.46673962 68.62663645 58.80600661 C68.55482745 66.02481164 68.48894979 73.243667 68.42356598 80.46253264 C68.28896888 95.30842016 68.14693734 110.15422928 68 125 C66.07715647 125.32708812 64.15400005 125.65233725 62.23071289 125.97680664 C61.15978897 126.15812637 60.08886505 126.33944611 58.98548889 126.52626038 C55.79019903 127.03329138 52.67265895 127.36267319 49.4375 127.4375 C48.46683594 127.47746094 47.49617188 127.51742187 46.49609375 127.55859375 C44 127 44 127 42.3515625 125.03125 C40.6047308 121.11350029 39.24433308 117.14552318 37.9375 113.0625 C37.33113337 111.20559713 36.72433474 109.34883528 36.1171875 107.4921875 C35.78557617 106.4722168 35.45396484 105.45224609 35.11230469 104.40136719 C32.96002096 97.81980071 30.75609118 91.2553911 28.5625 84.6875 C26.3040625 77.9121875 26.3040625 77.9121875 24 71 C23.67 90.47 23.34 109.94 23 130 C19.97048533 130.75737867 17.38386188 131.22303339 14.3125 131.5 C9.53464685 131.94725817 4.76844048 132.46162769 0 133 C-0.93218302 129.83735349 -1.12564956 127.00268631 -1.12698364 123.71102905 C-1.12980347 122.63982315 -1.13262329 121.56861725 -1.13552856 120.46495056 C-1.13350433 119.29492996 -1.1314801 118.12490936 -1.12939453 116.91943359 C-1.13114685 115.68335861 -1.13289917 114.44728363 -1.13470459 113.17375183 C-1.13835138 109.78757726 -1.13749717 106.40146379 -1.1343255 103.01529264 C-1.13179354 99.47281023 -1.13414167 95.93033042 -1.13571167 92.3878479 C-1.13753044 86.44117768 -1.13513421 80.49451989 -1.13037109 74.54785156 C-1.12492403 67.66773083 -1.12669552 60.78763972 -1.1321975 53.9075197 C-1.13673098 48.00257087 -1.13737817 42.09763096 -1.13475883 36.19268095 C-1.133198 32.66480945 -1.13299711 29.13695188 -1.13629532 25.60908127 C-1.13971221 21.67996818 -1.13498047 17.75088846 -1.12939453 13.82177734 C-1.13141876 12.64770828 -1.13344299 11.47363922 -1.13552856 10.26399231 C-1.13270874 9.19842606 -1.12988892 8.1328598 -1.12698364 7.03500366 C-1.12660662 6.10550085 -1.12622959 5.17599804 -1.12584114 4.21832848 C-1 2 -1 2 0 0 Z " fill="#D4252B" transform="translate(112,110)"/>
<path d="M0 0 C3.77196465 0.05176244 7.54161932 0.14681112 11.3125 0.25 C12.9202832 0.27126953 12.9202832 0.27126953 14.56054688 0.29296875 C15.58857422 0.32519531 16.61660156 0.35742188 17.67578125 0.390625 C18.62364502 0.41157227 19.57150879 0.43251953 20.5480957 0.45410156 C23 1 23 1 24.75488281 2.85791016 C26.30786935 5.52965602 27.37147716 8.22401983 28.4375 11.125 C30.28270216 16.0958628 32.2201479 21.00216484 34.30078125 25.87890625 C35 28 35 28 35 32 C35.66 32 36.32 32 37 32 C37.391875 30.741875 37.78375 29.48375 38.1875 28.1875 C39.72481876 23.5610407 41.66988788 19.20672052 43.73046875 14.79296875 C45.35817472 11.21201562 46.7906168 7.56864322 48.203125 3.8984375 C49 2 49 2 50 1 C51.70772358 0.91286169 53.41898649 0.89299993 55.12890625 0.90234375 C56.68061523 0.90717773 56.68061523 0.90717773 58.26367188 0.91210938 C59.35228516 0.92048828 60.44089844 0.92886719 61.5625 0.9375 C63.2012207 0.94426758 63.2012207 0.94426758 64.87304688 0.95117188 C67.58208495 0.96300174 70.29101599 0.97948457 73 1 C74.04498987 5.39024302 73.78133982 7.30064599 71.75 11.375 C71.04810547 12.82132813 71.04810547 12.82132813 70.33203125 14.296875 C69.89246094 15.18890625 69.45289063 16.0809375 69 17 C67.99515117 19.33124929 66.99477753 21.66443537 66 24 C65.42315047 25.28703076 64.84488604 26.5734278 64.265625 27.859375 C61.50412686 34.06880261 58.90175952 40.34218749 56.3125 46.625 C55.81427734 47.81351563 55.31605469 49.00203125 54.80273438 50.2265625 C54.32771484 51.3815625 53.85269531 52.5365625 53.36328125 53.7265625 C52.93313721 54.76377441 52.50299316 55.80098633 52.05981445 56.86962891 C49.79556187 63.55754565 49.7966121 67.62974943 52.6875 74.0625 C54.87028612 79.09026579 56.65785967 83.9957622 58.0625 89.3125 C59.4267167 94.34269822 61.17691404 98.59012451 63.640625 103.16015625 C65.77058616 107.60981649 67.29261881 112.2631293 68.85693359 116.93676758 C69.96896094 120.22603942 71.07391153 123.13589115 72.7421875 126.203125 C74.20166155 129.44841513 73.83472985 130.6455835 73 134 C69.58171575 133.55324153 66.16576705 133.09058293 62.75 132.625 C61.78191406 132.49867188 60.81382812 132.37234375 59.81640625 132.2421875 C58.88183594 132.11328125 57.94726562 131.984375 56.984375 131.8515625 C55.69611816 131.67874756 55.69611816 131.67874756 54.38183594 131.50244141 C51.93489913 130.98626716 50.12332918 130.31543838 48 129 C46.875 126.71484375 46.875 126.71484375 46 123.9375 C44.56332245 119.63305752 42.96452087 115.53903976 41.08203125 111.4140625 C38.94891513 106.65498033 36.99008399 101.82024443 35 97 C34.75765625 97.54527344 34.5153125 98.09054688 34.265625 98.65234375 C33.93046875 99.40644531 33.5953125 100.16054687 33.25 100.9375 C32.88261719 101.76507813 32.51523437 102.59265625 32.13671875 103.4453125 C31.43393993 105.02475357 30.72870895 106.60310919 30.01953125 108.1796875 C29.70371094 108.88351563 29.38789062 109.58734375 29.0625 110.3125 C28.7325 111.04082031 28.4025 111.76914063 28.0625 112.51953125 C27.260689 114.39140619 26.52112809 116.29011873 25.8125 118.19921875 C25.4 119.28847656 24.9875 120.37773437 24.5625 121.5 C24.19253906 122.5209375 23.82257812 123.541875 23.44140625 124.59375 C22 127 22 127 19.953125 127.93359375 C15.5986489 128.03151186 11.46774135 127.31257958 7.1875 126.5625 C6.30384766 126.41490234 5.42019531 126.26730469 4.50976562 126.11523438 C2.33837881 125.75138037 0.16871131 125.37942112 -2 125 C-1.59116216 117.693111 0.93500234 112.05612989 4.0625 105.5 C4.53494141 104.48679687 5.00738281 103.47359375 5.49414062 102.4296875 C6.65290727 99.94828822 7.82164977 97.4721437 9 95 C9.66 95 10.32 95 11 95 C11.0825 93.865625 11.165 92.73125 11.25 91.5625 C12.20201706 84.05214317 16.02104395 77.68425714 19.94921875 71.3359375 C21.87285357 67.05960432 22.34217856 63.28792879 21.13549805 58.74609375 C20.68215088 57.65425781 20.22880371 56.56242187 19.76171875 55.4375 C19.27123047 54.22835937 18.78074219 53.01921875 18.27539062 51.7734375 C17.74681807 50.51532045 17.21751545 49.25750988 16.6875 48 C15.66466093 45.52321578 14.65082227 43.04288879 13.63671875 40.5625 C13.17998779 39.47066406 12.72325684 38.37882812 12.25268555 37.25390625 C10.95292513 33.87772093 9.96246976 30.48545898 9 27 C8.43326689 25.6091528 7.83267558 24.23124144 7.1875 22.875 C5.44020859 19.03755245 3.81076334 15.16738335 2.25 11.25 C1.82203125 10.18265625 1.3940625 9.1153125 0.953125 8.015625 C0.03135811 5.09921502 -0.07781063 3.01930758 0 0 Z " fill="#D52127" transform="translate(522,109)"/>
<path d="M0 0 C1.13787964 -0.00315216 2.27575928 -0.00630432 3.44812012 -0.009552 C4.6866272 -0.00752777 5.92513428 -0.00550354 7.20117188 -0.00341797 C8.46255981 -0.00437469 9.72394775 -0.00533142 11.02355957 -0.00631714 C13.69689325 -0.00699922 16.37013624 -0.00564076 19.04345703 -0.00097656 C22.47698878 0.00472073 25.91044237 0.00144152 29.34397125 -0.00454903 C32.6088743 -0.00902309 35.87376781 -0.0058943 39.13867188 -0.00341797 C40.37717896 -0.0054422 41.61568604 -0.00746643 42.89172363 -0.009552 C44.02960327 -0.00639984 45.16748291 -0.00324768 46.33984375 0 C47.34720581 0.00079559 48.35456787 0.00159119 49.39245605 0.00241089 C51.66992188 0.12939453 51.66992188 0.12939453 52.66992188 1.12939453 C52.76891711 2.67895012 52.80071712 4.23293126 52.80273438 5.78564453 C52.80466797 7.19523437 52.80466797 7.19523437 52.80664062 8.63330078 C52.80277344 9.62201172 52.79890625 10.61072266 52.79492188 11.62939453 C52.80072266 13.11246094 52.80072266 13.11246094 52.80664062 14.62548828 C52.80535156 15.56521484 52.8040625 16.50494141 52.80273438 17.47314453 C52.80160645 18.34132812 52.80047852 19.20951172 52.79931641 20.10400391 C52.66992188 22.12939453 52.66992188 22.12939453 51.66992188 23.12939453 C48.93494301 23.37364292 46.22337143 23.55686144 43.48242188 23.69189453 C42.27187134 23.75449463 42.27187134 23.75449463 41.03686523 23.81835938 C21.5596074 24.75928971 21.5596074 24.75928971 16.66992188 23.12939453 C16.99992187 31.04939453 17.32992187 38.96939453 17.66992188 47.12939453 C19.46300781 47.11779297 21.25609375 47.10619141 23.10351562 47.09423828 C25.43815001 47.08486224 27.77278551 47.07576184 30.10742188 47.06689453 C31.29142578 47.05851562 32.47542969 47.05013672 33.6953125 47.04150391 C34.82001953 47.03828125 35.94472656 47.03505859 37.10351562 47.03173828 C38.14564209 47.02650146 39.18776855 47.02126465 40.26147461 47.01586914 C42.66992188 47.12939453 42.66992188 47.12939453 43.66992188 48.12939453 C45.17105796 55.93530219 44.28521795 63.13054554 43.66992188 71.12939453 C34.75992188 71.12939453 25.84992188 71.12939453 16.66992188 71.12939453 C16.66992188 80.03939453 16.66992188 88.94939453 16.66992188 98.12939453 C19.63992187 97.63439453 19.63992187 97.63439453 22.66992188 97.12939453 C32.68058133 96.01096223 42.61299569 96.0476309 52.66992188 96.12939453 C52.66992188 103.05939453 52.66992188 109.98939453 52.66992188 117.12939453 C45.91917312 119.37964412 45.91917312 119.37964412 42.15258789 119.72363281 C40.89581993 119.84353073 40.89581993 119.84353073 39.61366272 119.96585083 C38.7260173 120.04302338 37.83837189 120.12019592 36.92382812 120.19970703 C35.99448959 120.28566132 35.06515106 120.3716156 34.10765076 120.46017456 C32.14881597 120.63991623 30.18966208 120.81620988 28.23022461 120.98925781 C25.24515023 121.25326879 22.26124965 121.52830079 19.27734375 121.80517578 C17.36789762 121.97900305 15.45839408 122.15220103 13.54882812 122.32470703 C12.66320694 122.40592804 11.77758575 122.48714905 10.86512756 122.5708313 C-1.70444578 123.67127198 -1.70444578 123.67127198 -6.33007812 122.12939453 C-6.35340743 106.37022709 -6.37105746 90.61106429 -6.3818903 74.85188389 C-6.38705319 67.53512051 -6.39409575 60.21836784 -6.40551758 52.90161133 C-6.41546463 46.52656435 -6.4219316 40.15152512 -6.42416662 33.7764706 C-6.42547369 30.39891439 -6.42855931 27.02138037 -6.43580818 23.64383125 C-6.44301425 19.8793211 -6.44406925 16.11485768 -6.44360352 12.3503418 C-6.44899643 10.65857567 -6.44899643 10.65857567 -6.45449829 8.93263245 C-6.45312363 7.91314514 -6.45174896 6.89365784 -6.45033264 5.84327698 C-6.45125443 4.95190316 -6.45217623 4.06052935 -6.45312595 3.1421442 C-6.20243023 -0.95860048 -3.4949142 0.00276021 0 0 Z " fill="#D72327" transform="translate(203.330078125,109.87060546875)"/>
<path d="M0 0 C7.52771157 -0.02314652 15.05541947 -0.04092691 22.58315849 -0.05181217 C26.07840098 -0.05703593 29.57361916 -0.06412441 33.06884766 -0.07543945 C37.08496334 -0.08835974 41.1010534 -0.0932324 45.1171875 -0.09765625 C47.00472244 -0.10539818 47.00472244 -0.10539818 48.9303894 -0.11329651 C50.09144196 -0.11337204 51.25249451 -0.11344757 52.44873047 -0.11352539 C53.47465302 -0.115746 54.50057556 -0.11796661 55.55758667 -0.12025452 C58 0 58 0 60 1 C60.02903577 4.10414702 60.0468107 7.20825909 60.0625 10.3125 C60.07087891 11.19357422 60.07925781 12.07464844 60.08789062 12.98242188 C60.09111328 13.82998047 60.09433594 14.67753906 60.09765625 15.55078125 C60.10289307 16.33106689 60.10812988 17.11135254 60.11352539 17.9152832 C60 20 60 20 59 23 C46.64955669 24.19865654 34.40181564 24.07295186 22 24 C22 31.26 22 38.52 22 46 C31.24 46 40.48 46 50 46 C51.13846154 58.52307692 51.13846154 58.52307692 50.6875 63.625 C50.60886719 64.62789063 50.53023438 65.63078125 50.44921875 66.6640625 C50.30097656 67.43492187 50.15273438 68.20578125 50 69 C47.28598706 70.35700647 45.15153684 70.1123861 42.1171875 70.09765625 C40.95058594 70.09443359 39.78398437 70.09121094 38.58203125 70.08789062 C37.35871094 70.07951172 36.13539063 70.07113281 34.875 70.0625 C33.64394531 70.05798828 32.41289062 70.05347656 31.14453125 70.04882812 C28.09630608 70.0370133 25.04817686 70.02054028 22 70 C22.00222061 70.56154282 22.00444122 71.12308563 22.00672913 71.7016449 C22.02878306 77.52480435 22.04390705 83.34795201 22.05493164 89.17114258 C22.05997308 91.34692873 22.06680607 93.52271147 22.07543945 95.69848633 C22.08751338 98.81853067 22.09323005 101.93853038 22.09765625 105.05859375 C22.10281754 106.03775253 22.10797882 107.01691132 22.11329651 108.02574158 C22.11340981 109.37702904 22.11340981 109.37702904 22.11352539 110.75561523 C22.115746 111.55281479 22.11796661 112.35001434 22.12025452 113.17137146 C22 115 22 115 21 116 C18.21900528 116.10048227 15.46825072 116.13870954 12.6875 116.125 C11.91470703 116.12886719 11.14191406 116.13273437 10.34570312 116.13671875 C9.59611328 116.13542969 8.84652344 116.13414062 8.07421875 116.1328125 C7.38932373 116.13168457 6.70442871 116.13055664 5.9987793 116.12939453 C3.89695926 115.99332947 2.02372945 115.57012045 0 115 C-1.13536212 97.46525015 -1.15531302 79.94279405 -1.13037109 62.38037109 C-1.12467438 58.3164752 -1.12805191 54.25264486 -1.13382339 50.18875122 C-1.15387311 33.43616689 -1.08297751 16.72571191 0 0 Z " fill="#D62629" transform="translate(343,110)"/>
<path d="M0 0 C8.3100228 -0.02256837 16.62002188 -0.04092518 24.93006706 -0.05181217 C28.7885133 -0.05703667 32.64693753 -0.06412649 36.50537109 -0.07543945 C40.2271153 -0.08628368 43.9488383 -0.09228011 47.67059708 -0.09487724 C49.09240172 -0.09672871 50.51420517 -0.10034403 51.93600082 -0.10573006 C53.9233055 -0.11296072 55.91063139 -0.11340823 57.89794922 -0.11352539 C59.59671707 -0.11685631 59.59671707 -0.11685631 61.32980347 -0.12025452 C64 0 64 0 66 1 C66.02903577 4.10414702 66.0468107 7.20825909 66.0625 10.3125 C66.07087891 11.19357422 66.07925781 12.07464844 66.08789062 12.98242188 C66.09111328 13.82998047 66.09433594 14.67753906 66.09765625 15.55078125 C66.10289307 16.33106689 66.10812988 17.11135254 66.11352539 17.9152832 C66 20 66 20 65 23 C54.605 23.495 54.605 23.495 44 24 C44.00523682 26.71065674 44.01047363 29.42131348 44.01586914 32.21411133 C44.03242086 41.15880092 44.04347759 50.10349118 44.05181217 59.04819202 C44.05703618 64.47264731 44.06412514 69.89708693 44.07543945 75.3215332 C44.08628537 80.55401959 44.09228047 85.7864909 44.09487724 91.01898766 C44.0967284 93.01771978 44.10034313 95.01645105 44.10573006 97.01517677 C44.11296306 99.80937119 44.11398998 102.60350285 44.11352539 105.39770508 C44.11712067 106.22848572 44.12071594 107.05926636 44.12442017 107.91522217 C44.1184839 111.20319433 44.04726152 113.85821544 43 117 C36.07 117 29.14 117 22 117 C20.91749623 112.66998491 20.86725408 108.70635472 20.88647461 104.28417969 C20.88632858 103.40577423 20.88618256 102.52736877 20.8860321 101.62234497 C20.88672815 98.7221631 20.89450614 95.82204564 20.90234375 92.921875 C20.90420902 90.90977005 20.90563241 88.89766465 20.90663147 86.88555908 C20.91044802 81.59194686 20.92027098 76.29836211 20.93133545 71.00476074 C20.94156808 65.60213594 20.94613306 60.1995067 20.95117188 54.796875 C20.961894 44.1979046 20.9789601 33.59895459 21 23 C19.98679687 23.08378906 18.97359375 23.16757813 17.9296875 23.25390625 C16.57815379 23.35714841 15.22658958 23.4599918 13.875 23.5625 C13.20984375 23.61857422 12.5446875 23.67464844 11.859375 23.73242188 C7.55413501 24.04898364 4.37078282 23.7284638 0 23 C0 15.41 0 7.82 0 0 Z " fill="#D5252D" transform="translate(267,110)"/>
<path d="M0 0 C3.62484999 -0.08681476 7.24943443 -0.14032721 10.875 -0.1875 C12.42380859 -0.22520508 12.42380859 -0.22520508 14.00390625 -0.26367188 C14.99003906 -0.27333984 15.97617187 -0.28300781 16.9921875 -0.29296875 C17.90339355 -0.3086792 18.81459961 -0.32438965 19.75341797 -0.34057617 C20.49479004 -0.22818604 21.23616211 -0.1157959 22 0 C24.62409437 3.93614156 24.22402174 7.2271944 24.13525391 11.78588867 C24.12579239 12.68365524 24.11633087 13.58142181 24.10658264 14.50639343 C24.07287476 17.47712438 24.02476758 20.44744057 23.9765625 23.41796875 C23.9503985 25.47633273 23.92513124 27.53470829 23.90072632 29.59309387 C23.83404482 35.01344441 23.75515846 40.43355178 23.67376709 45.85369873 C23.59287689 51.38349059 23.52347817 56.9134252 23.453125 62.44335938 C23.31335795 73.29574405 23.16070252 84.14790657 23 95 C24.53142891 94.99741684 24.53142891 94.99741684 26.09379578 94.99478149 C27.45144649 94.99338847 28.80909725 94.99203776 30.16674805 94.99072266 C30.83750114 94.98947891 31.50825424 94.98823517 32.19933319 94.98695374 C37.41397243 94.98317177 42.60595215 95.09682291 47.8125 95.375 C48.58658203 95.4059375 49.36066406 95.436875 50.15820312 95.46875 C55.76242079 95.76242079 55.76242079 95.76242079 58 98 C58.24291992 100.04711914 58.24291992 100.04711914 58.23046875 102.53515625 C58.22853516 103.42654297 58.22660156 104.31792969 58.22460938 105.23632812 C58.20624023 106.6352832 58.20624023 106.6352832 58.1875 108.0625 C58.18685547 108.99900391 58.18621094 109.93550781 58.18554688 110.90039062 C58.14019224 117.85980776 58.14019224 117.85980776 57 119 C55.60914804 119.0688119 54.21473749 119.06770094 52.82250977 119.03759766 C51.93390762 119.02072906 51.04530548 119.00386047 50.129776 118.98648071 C49.16011398 118.9625827 48.19045197 118.93868469 47.19140625 118.9140625 C46.19551987 118.89282318 45.19963348 118.87158386 44.17356873 118.84970093 C42.05584254 118.80330977 39.93817089 118.75437181 37.82055664 118.703125 C34.60769493 118.62608373 31.39473994 118.55848287 28.18164062 118.4921875 C26.1223829 118.44588411 24.06313756 118.39902597 22.00390625 118.3515625 C20.57674034 118.32178818 20.57674034 118.32178818 19.1207428 118.29141235 C5.47288428 117.94651548 5.47288428 117.94651548 1 117 C-0.20593342 114.58813315 -0.12318918 113.08766923 -0.12025452 110.39364624 C-0.12162918 109.4232692 -0.12300385 108.45289215 -0.12442017 107.45310974 C-0.12082489 106.38496536 -0.11722961 105.31682098 -0.11352539 104.21630859 C-0.11367142 103.09435593 -0.11381744 101.97240326 -0.1139679 100.81645203 C-0.11326909 97.09376111 -0.10547815 93.37111972 -0.09765625 89.6484375 C-0.09579196 87.07296781 -0.09436811 84.49749776 -0.09336853 81.92202759 C-0.0899355 75.82699678 -0.08204739 69.73198653 -0.07201904 63.63696349 C-0.06085056 56.69872028 -0.0553456 49.76047624 -0.05032361 42.82222629 C-0.03986458 28.54814124 -0.02226971 14.27407126 0 0 Z " fill="#D82228" transform="translate(412,110)"/>
<path d="M0 0 C0.76530029 0.0407666 1.53060059 0.0815332 2.3190918 0.12353516 C3.15504883 0.16736328 3.99100586 0.21119141 4.85229492 0.25634766 C5.73208008 0.30791016 6.61186523 0.35947266 7.51831055 0.41259766 C8.38649414 0.45642578 9.25467773 0.50025391 10.14916992 0.54541016 C13.98266603 0.75723803 17.48570088 1.06709718 21.20581055 2.03759766 C21.22919808 16.78045275 21.24681846 31.52330538 21.25762272 46.26617527 C21.26277324 53.11194543 21.26979222 59.95770405 21.28125 66.8034668 C21.292303 73.41054699 21.2980959 80.01761835 21.30068779 86.62470818 C21.30253481 89.14485805 21.30614154 91.66500728 21.3115406 94.18515205 C21.3188041 97.71614116 21.31979924 101.24708079 21.31933594 104.77807617 C21.32293121 105.81889343 21.32652649 106.85971069 21.33023071 107.93206787 C21.32292856 113.07847905 21.09968881 117.9665687 20.20581055 123.03759766 C17.23594503 123.93266582 14.94941266 124.07074934 11.87768555 123.69775391 C11.0784668 123.60429687 10.27924805 123.51083984 9.45581055 123.41455078 C8.63081055 123.31078125 7.80581055 123.20701172 6.95581055 123.10009766 C5.69510742 122.95024414 5.69510742 122.95024414 4.40893555 122.79736328 C2.34044777 122.55055508 0.27301483 122.29493481 -1.79418945 122.03759766 C-2.75789405 115.58058551 -2.93644908 109.29491637 -2.92358398 102.7722168 C-2.9253363 101.6705014 -2.92708862 100.56878601 -2.92889404 99.4336853 C-2.933275 95.81335855 -2.93038924 92.1930811 -2.92700195 88.57275391 C-2.92767573 86.0530954 -2.92864638 83.53343697 -2.92990112 81.01377869 C-2.93137271 75.74591573 -2.92933545 70.47806552 -2.92456055 65.21020508 C-2.91909965 59.11500717 -2.92089697 53.01984261 -2.92638695 46.92464548 C-2.93146182 41.05560531 -2.93093812 35.18657555 -2.92800522 29.31753349 C-2.92733619 26.82033725 -2.92816352 24.32314016 -2.93048477 21.8259449 C-2.93300868 18.34967878 -2.92917536 14.87347802 -2.92358398 11.3972168 C-2.92560822 10.35674698 -2.92763245 9.31627716 -2.92971802 8.24427795 C-2.92689819 7.30366516 -2.92407837 6.36305237 -2.9211731 5.39393616 C-2.92079607 4.57194764 -2.92041904 3.74995913 -2.92003059 2.90306187 C-2.75223768 0.41570621 -2.5072148 0.05253927 0 0 Z " fill="#D52027" transform="translate(486.794189453125,108.96240234375)"/>
<path d="M0 0 C1.01037827 0.00222061 2.02075653 0.00444122 3.06175232 0.00672913 C4.77341331 0.00684242 4.77341331 0.00684242 6.51965332 0.00695801 C7.76129745 0.01211929 9.00294159 0.01728058 10.2822113 0.02259827 C12.17785072 0.02472069 12.17785072 0.02472069 14.11178589 0.02688599 C17.47705394 0.0315487 20.84225495 0.04053972 24.20750427 0.05158997 C27.63930175 0.06180606 31.07110614 0.06638403 34.50291443 0.07142639 C41.2405633 0.08248071 47.9781803 0.09923742 54.71580505 0.12025452 C54.71580505 0.45025452 54.71580505 0.78025452 54.71580505 1.12025452 C36.23580505 1.12025452 17.75580505 1.12025452 -1.28419495 1.12025452 C-1.28419495 40.72025452 -1.28419495 80.32025452 -1.28419495 121.12025452 C5.85030095 121.48829533 5.85030095 121.48829533 11.71580505 119.12025452 C13.71538869 119.07944669 15.71625759 119.07771095 17.71580505 119.12025452 C17.71580505 118.46025452 17.71580505 117.80025452 17.71580505 117.12025452 C21.1741199 117.0907622 24.63240159 117.07329291 28.09080505 117.05775452 C29.05631287 117.04937561 30.02182068 117.0409967 31.0165863 117.03236389 C37.31404795 117.01123147 43.46420368 117.35918254 49.71580505 118.12025452 C49.71580505 118.45025452 49.71580505 118.78025452 49.71580505 119.12025452 C43.72050923 119.69410578 37.72482399 120.26363454 31.72874451 120.82923889 C29.69087253 121.02207396 27.65311006 121.21607003 25.61546326 121.41127014 C22.679142 121.69235389 19.74244655 121.96919925 16.8056488 122.24525452 C15.90120529 122.33274963 14.99676178 122.42024475 14.06491089 122.51039124 C1.41780816 123.68758888 1.41780816 123.68758888 -3.28419495 122.12025452 C-3.30752426 106.36108708 -3.32517428 90.60192428 -3.33600712 74.84274387 C-3.34117001 67.52598049 -3.34821257 60.20922782 -3.3596344 52.89247131 C-3.36958145 46.51742433 -3.37604842 40.14238511 -3.37828344 33.76733059 C-3.37959051 30.38977438 -3.38267613 27.01224036 -3.389925 23.63469124 C-3.39713107 19.87018109 -3.39818607 16.10571766 -3.39772034 12.34120178 C-3.40311325 10.64943565 -3.40311325 10.64943565 -3.40861511 8.92349243 C-3.40724045 7.90400513 -3.40586578 6.88451782 -3.40444946 5.83413696 C-3.40537126 4.94276315 -3.40629305 4.05138933 -3.40724277 3.13300419 C-3.23000607 0.23386225 -2.90485659 0.15293008 0 0 Z " fill="#CF6770" transform="translate(200.28419494628906,109.87974548339844)"/>
<path d="M0 0 C6.6 0 13.2 0 20 0 C21.66975427 3.33950853 21.12883006 7.09290486 21.11352539 10.76416016 C21.11367142 11.67153427 21.11381744 12.57890839 21.1139679 13.51377869 C21.11326951 16.52223068 21.10548054 19.53062128 21.09765625 22.5390625 C21.09579181 24.62128668 21.09436803 26.70351131 21.09336853 28.78573608 C21.08954541 34.27336838 21.07971686 39.76097433 21.06866455 45.24859619 C21.05844602 50.84541467 21.05386996 56.44223739 21.04882812 62.0390625 C21.03809443 73.02605326 21.02102045 84.01302444 21 95 C22.98 95 24.96 95 27 95 C23.91190305 96.76462683 22.76687864 97 19 97 C19 65.65 19 34.3 19 2 C13.39 2 7.78 2 2 2 C2.01047363 4.61977783 2.02094727 7.23955566 2.03173828 9.9387207 C2.06484342 18.58404328 2.08695584 27.22936862 2.10362434 35.87473774 C2.11407189 41.11761636 2.12824882 46.36043017 2.15087891 51.60327148 C2.17257264 56.66069872 2.18456131 61.71806351 2.18975449 66.77553368 C2.19345649 68.7072873 2.20068534 70.63903742 2.21146011 72.57076454 C2.22592891 75.27161736 2.22797988 77.97221052 2.22705078 80.6730957 C2.23424133 81.47582413 2.24143188 82.27855255 2.24884033 83.10560608 C2.23451601 86.94106078 2.17958656 88.73062016 0 92 C0 61.64 0 31.28 0 0 Z " fill="#BC1F25" transform="translate(413,111)"/>
<path d="M0 0 C0.76530029 0.0407666 1.53060059 0.0815332 2.3190918 0.12353516 C3.15504883 0.16736328 3.99100586 0.21119141 4.85229492 0.25634766 C5.73208008 0.30791016 6.61186523 0.35947266 7.51831055 0.41259766 C8.38649414 0.45642578 9.25467773 0.50025391 10.14916992 0.54541016 C13.98266603 0.75723803 17.48570088 1.06709718 21.20581055 2.03759766 C21.23149736 9.66495023 21.2488162 17.29229136 21.26074219 24.91967773 C21.26572227 27.50594499 21.27250874 30.09220951 21.28125 32.6784668 C21.33003376 47.50012237 21.22905173 62.24732114 20.20581055 77.03759766 C19.87581055 77.03759766 19.54581055 77.03759766 19.20581055 77.03759766 C18.38354415 52.69545074 18.08041102 28.39297159 18.20581055 4.03759766 C12.26581055 4.03759766 6.32581055 4.03759766 0.20581055 4.03759766 C-0.12418945 34.06759766 -0.45418945 64.09759766 -0.79418945 95.03759766 C-1.12418945 95.03759766 -1.45418945 95.03759766 -1.79418945 95.03759766 C-2.58285248 82.90832009 -2.9446373 70.8433724 -2.92700195 58.68994141 C-2.92767798 57.01412441 -2.92865047 55.33830751 -2.92990112 53.66249084 C-2.93135715 50.19628948 -2.92928752 46.73011429 -2.92456055 43.26391602 C-2.9187879 38.81412972 -2.92220219 34.36440276 -2.92813301 29.91461849 C-2.93173128 26.4755457 -2.93060476 23.03648722 -2.92800522 19.59741402 C-2.92733781 17.95429032 -2.9281579 16.31116532 -2.93048477 14.66804314 C-2.9330073 12.39267328 -2.92917997 10.11740336 -2.92358398 7.84204102 C-2.92278839 6.54842148 -2.9219928 5.25480194 -2.9211731 3.92198181 C-2.75104767 0.05764884 -2.75104767 0.05764884 0 0 Z " fill="#B3363C" transform="translate(486.794189453125,108.96240234375)"/>
<path d="M0 0 C18.81 0 37.62 0 57 0 C57 6.93 57 13.86 57 21 C54.92854776 23.07145224 50.67186416 22.4216332 47.8125 22.5625 C46.60194946 22.6251001 46.60194946 22.6251001 45.36694336 22.68896484 C25.88968552 23.62989517 25.88968552 23.62989517 21 22 C21.33 29.92 21.66 37.84 22 46 C28.93 46.33 35.86 46.66 43 47 C43 47.33 43 47.66 43 48 C39.35418313 48.02887512 35.70839537 48.04675585 32.0625 48.0625 C31.02158203 48.07087891 29.98066406 48.07925781 28.90820312 48.08789062 C27.42416992 48.09272461 27.42416992 48.09272461 25.91015625 48.09765625 C24.53549194 48.10551147 24.53549194 48.10551147 23.13305664 48.11352539 C21 48 21 48 20 47 C19.90028214 45.08541718 19.86919411 43.16717683 19.8671875 41.25 C19.86589844 40.0846875 19.86460937 38.919375 19.86328125 37.71875 C19.86714844 36.4915625 19.87101562 35.264375 19.875 34 C19.86919922 32.15921875 19.86919922 32.15921875 19.86328125 30.28125 C19.86457031 29.1159375 19.86585938 27.950625 19.8671875 26.75 C19.86831543 25.67234375 19.86944336 24.5946875 19.87060547 23.484375 C20 21 20 21 21 20 C23.59359322 19.91148471 26.16039691 19.88474055 28.75390625 19.90234375 C29.52935287 19.9037587 30.3047995 19.90517365 31.10374451 19.90663147 C33.59003494 19.91224655 36.0762366 19.92480154 38.5625 19.9375 C40.24413933 19.94251306 41.92578006 19.9470763 43.60742188 19.95117188 C47.73834329 19.96137168 51.86907182 19.98094395 56 20 C56 13.73 56 7.46 56 1 C37.85 1 19.7 1 1 1 C1.33 40.27 1.66 79.54 2 120 C1.34 120 0.68 120 0 120 C0 80.4 0 40.8 0 0 Z " fill="#C01A21" transform="translate(199,111)"/>
<path d="M0 0 C2.10348188 3.45537671 2.26563303 6.2051318 2.30297852 10.21459961 C2.31962051 11.47368637 2.33626251 12.73277313 2.35340881 14.03001404 C2.36197935 15.4041235 2.37047659 16.77823342 2.37890625 18.15234375 C2.39510352 19.57281106 2.41228581 20.99326745 2.43040466 22.41371155 C2.47608601 26.15856791 2.5108585 29.90343994 2.54260254 33.6484375 C2.59441635 39.60925119 2.66060279 45.56989798 2.73081779 51.53051949 C2.75326582 53.59348821 2.76979556 55.65643788 2.78553772 57.71946716 C2.87081981 65.85870182 3.29071732 73.89059419 4 82 C9.94 82.33 15.88 82.66 22 83 C22 83.66 22 84.32 22 85 C21.23816406 85.06058594 20.47632813 85.12117188 19.69140625 85.18359375 C13.44640026 85.69036702 7.22331399 86.2739467 1 87 C-0.30475507 83.04150648 -0.13295498 79.04329978 -0.11352539 74.92675781 C-0.11374443 73.71156212 -0.11374443 73.71156212 -0.1139679 72.47181702 C-0.11327224 69.79889227 -0.10549606 67.12603755 -0.09765625 64.453125 C-0.09579084 62.59796181 -0.09436752 60.74279813 -0.09336853 58.88763428 C-0.08955305 54.00830726 -0.07973102 49.12901007 -0.06866455 44.24969482 C-0.05842961 39.2693319 -0.05386644 34.28896416 -0.04882812 29.30859375 C-0.0381079 19.5390494 -0.02104309 9.76952718 0 0 Z " fill="#BD4045" transform="translate(111,156)"/>
<path d="M0 0 C7.52771515 -0.02257134 15.05541776 -0.04092691 22.58315849 -0.05181217 C26.07840098 -0.05703593 29.57361916 -0.06412441 33.06884766 -0.07543945 C37.08496334 -0.08835974 41.1010534 -0.0932324 45.1171875 -0.09765625 C47.00472244 -0.10539818 47.00472244 -0.10539818 48.9303894 -0.11329651 C50.09144196 -0.11337204 51.25249451 -0.11344757 52.44873047 -0.11352539 C53.47465302 -0.115746 54.50057556 -0.11796661 55.55758667 -0.12025452 C58 0 58 0 60 1 C60.02903577 4.10414702 60.0468107 7.20825909 60.0625 10.3125 C60.07087891 11.19357422 60.07925781 12.07464844 60.08789062 12.98242188 C60.09111328 13.82998047 60.09433594 14.67753906 60.09765625 15.55078125 C60.10289307 16.33106689 60.10812988 17.11135254 60.11352539 17.9152832 C60 20 60 20 59 23 C48.96557967 23.87801178 39.06394247 24.1176305 29 24 C29 23.01 29 22.02 29 21 C37.91 20.67 46.82 20.34 56 20 C56 14.39 56 8.78 56 3 C53.49065701 1.7453285 51.71622645 1.84126442 48.90771484 1.79467773 C47.84676605 1.77473251 46.78581726 1.75478729 45.69271851 1.73423767 C44.54373077 1.71752518 43.39474304 1.70081268 42.2109375 1.68359375 C41.03737701 1.66281265 39.86381653 1.64203156 38.6546936 1.62062073 C34.89485696 1.55508017 31.13494878 1.49621924 27.375 1.4375 C24.83072168 1.39431908 22.28645067 1.35070493 19.7421875 1.30664062 C13.49486553 1.19939414 7.2474714 1.09813939 1 1 C1 7.6 1 14.2 1 21 C0.67 21 0.34 21 0 21 C0 14.07 0 7.14 0 0 Z " fill="#CA575B" transform="translate(343,110)"/>
<path d="M0 0 C3.27066566 -0.08706892 6.54103365 -0.14041241 9.8125 -0.1875 C10.74126953 -0.21263672 11.67003906 -0.23777344 12.62695312 -0.26367188 C13.9659668 -0.27817383 13.9659668 -0.27817383 15.33203125 -0.29296875 C16.56530151 -0.31653442 16.56530151 -0.31653442 17.82348633 -0.34057617 C20.56599301 0.08856537 21.35789972 0.78911202 23 3 C23.81201172 4.98608398 23.81201172 4.98608398 24.4296875 7.24609375 C24.66510254 8.0777002 24.90051758 8.90930664 25.14306641 9.76611328 C25.50537354 11.08844971 25.50537354 11.08844971 25.875 12.4375 C28.10284424 20.21897219 30.69720851 27.60174706 34 35 C34.80296225 36.87019056 35.59523522 38.74501915 36.375 40.625 C36.71273437 41.42164063 37.05046875 42.21828125 37.3984375 43.0390625 C38 45 38 45 37 47 C33.37503288 43.86934658 32.21884452 40.56317517 31.5625 35.875 C30.93650377 32.67546373 30.35747514 32.08545878 28 30 C25.02076784 26.10408103 24.68718407 22.92179921 24.3125 18.19921875 C23.87458109 15.11736444 22.43055273 12.74189274 21 10 C20.3125 6.125 20.3125 6.125 20 3 C16.15158652 1.81968762 12.241721 1.66764649 8.25 1.4375 C7.55261719 1.39431641 6.85523437 1.35113281 6.13671875 1.30664062 C4.42468078 1.20110404 2.71236439 1.1001009 1 1 C0.67 2.32 0.34 3.64 0 5 C-0.33 4.01 -0.66 3.02 -1 2 C-0.67 1.34 -0.34 0.68 0 0 Z " fill="#BB333A" transform="translate(112,110)"/>
<path d="M0 0 C3.62484999 -0.08681476 7.24943443 -0.14032721 10.875 -0.1875 C12.42380859 -0.22520508 12.42380859 -0.22520508 14.00390625 -0.26367188 C14.99003906 -0.27333984 15.97617187 -0.28300781 16.9921875 -0.29296875 C17.90339355 -0.3086792 18.81459961 -0.32438965 19.75341797 -0.34057617 C20.49479004 -0.22818604 21.23616211 -0.1157959 22 0 C24.62409437 3.93614156 24.22402174 7.2271944 24.13525391 11.78588867 C24.12579239 12.68365524 24.11633087 13.58142181 24.10658264 14.50639343 C24.07287476 17.47712438 24.02476758 20.44744057 23.9765625 23.41796875 C23.9503985 25.47633273 23.92513124 27.53470829 23.90072632 29.59309387 C23.83404482 35.01344441 23.75515846 40.43355178 23.67376709 45.85369873 C23.59287689 51.38349059 23.52347817 56.9134252 23.453125 62.44335938 C23.31335795 73.29574405 23.16070252 84.14790657 23 95 C27.95 95 32.9 95 38 95 C36 97 36 97 32.25 97.1875 C28.66476966 97.1522123 25.63852162 96.60642027 22 96 C21.67 64.65 21.34 33.3 21 1 C14.07 1 7.14 1 0 1 C0 0.67 0 0.34 0 0 Z " fill="#D38788" transform="translate(412,110)"/>
<path d="M0 0 C20.46 0 40.92 0 62 0 C62 0.33 62 0.66 62 1 C41.87 1 21.74 1 1 1 C1.33 7.27 1.66 13.54 2 20 C7.83350521 20.28895044 7.83350521 20.28895044 13.66748047 20.56811523 C14.39338379 20.60622314 15.11928711 20.64433105 15.8671875 20.68359375 C16.98262939 20.73858032 16.98262939 20.73858032 18.12060547 20.79467773 C20 21 20 21 22 22 C22 24.64 22 27.28 22 30 C21.67 30 21.34 30 21 30 C21 27.69 21 25.38 21 23 C19.98679687 23.08378906 18.97359375 23.16757813 17.9296875 23.25390625 C16.57815379 23.35714841 15.22658958 23.4599918 13.875 23.5625 C13.20984375 23.61857422 12.5446875 23.67464844 11.859375 23.73242188 C7.55413501 24.04898364 4.37078282 23.7284638 0 23 C0 15.41 0 7.82 0 0 Z " fill="#BD4A50" transform="translate(267,110)"/>
<path d="M0 0 C0.33 0 0.66 0 1 0 C1.02887814 3.47914941 1.04675687 6.95826831 1.0625 10.4375 C1.07087891 11.43072266 1.07925781 12.42394531 1.08789062 13.44726562 C1.09111328 14.39150391 1.09433594 15.33574219 1.09765625 16.30859375 C1.10289307 17.18314209 1.10812988 18.05769043 1.11352539 18.95874023 C1 21 1 21 0 22 C-2.73497886 22.24424839 -5.44655044 22.4274669 -8.1875 22.5625 C-9.39805054 22.6251001 -9.39805054 22.6251001 -10.63305664 22.68896484 C-30.11031448 23.62989517 -30.11031448 23.62989517 -35 22 C-34.67 29.92 -34.34 37.84 -34 46 C-27.07 46.33 -20.14 46.66 -13 47 C-13 47.33 -13 47.66 -13 48 C-16.64581687 48.02887512 -20.29160463 48.04675585 -23.9375 48.0625 C-25.49887695 48.07506836 -25.49887695 48.07506836 -27.09179688 48.08789062 C-28.08115234 48.09111328 -29.07050781 48.09433594 -30.08984375 48.09765625 C-31.46450806 48.10551147 -31.46450806 48.10551147 -32.86694336 48.11352539 C-35 48 -35 48 -36 47 C-36.09971786 45.08541718 -36.13080589 43.16717683 -36.1328125 41.25 C-36.13410156 40.0846875 -36.13539063 38.919375 -36.13671875 37.71875 C-36.13285156 36.4915625 -36.12898437 35.264375 -36.125 34 C-36.12886719 32.7728125 -36.13273438 31.545625 -36.13671875 30.28125 C-36.13542969 29.1159375 -36.13414062 27.950625 -36.1328125 26.75 C-36.13168457 25.67234375 -36.13055664 24.5946875 -36.12939453 23.484375 C-36 21 -36 21 -35 20 C-32.40640678 19.91148471 -29.83960309 19.88474055 -27.24609375 19.90234375 C-26.47064713 19.9037587 -25.6952005 19.90517365 -24.89625549 19.90663147 C-22.40996506 19.91224655 -19.9237634 19.92480154 -17.4375 19.9375 C-15.75586067 19.94251306 -14.07421994 19.9470763 -12.39257812 19.95117188 C-8.26165671 19.96137168 -4.13092818 19.98094395 0 20 C0 13.4 0 6.8 0 0 Z " fill="#B63E45" transform="translate(255,111)"/>
<path d="M0 0 C0.99 0 1.98 0 3 0 C2.79503906 0.56847656 2.59007812 1.13695312 2.37890625 1.72265625 C2.10949219 2.49480469 1.84007812 3.26695312 1.5625 4.0625 C1.29566406 4.81660156 1.02882813 5.57070312 0.75390625 6.34765625 C-1.11114201 12.90914729 -1.07011965 17.17331075 1.75 23.375 C2.31155315 24.69200291 2.8714574 26.00971014 3.4296875 27.328125 C4.20699219 29.14570313 4.20699219 29.14570313 5 31 C8.4758504 40.08287916 8.4758504 40.08287916 8 45 C4.32384405 41.20130552 3.42892277 38.10269377 2.50390625 33.0859375 C1.88746309 30.53414952 0.72039325 28.95499233 -1 27 C-1 26.34 -1 25.68 -1 25 C-1.66 25 -2.32 25 -3 25 C-4.07981615 18.36684368 -4.52645614 11.70014185 -5 5 C-3.35 4.34 -1.7 3.68 0 3 C0 2.01 0 1.02 0 0 Z " fill="#C53B42" transform="translate(573,160)"/>
<path d="M0 0 C0.20235768 1.5815031 0.38569143 3.16543715 0.5625 4.75 C0.66691406 5.63171875 0.77132813 6.5134375 0.87890625 7.421875 C1.05482077 12.61986544 0.43191674 17.81699909 0 23 C-9.9 23.33 -19.8 23.66 -30 24 C-29.67 22.68 -29.34 21.36 -29 20 C-16.13 20.495 -16.13 20.495 -3 21 C-3 18.03 -3 15.06 -3 12 C-2.77541163 9.30092903 -2.39023207 6.6828455 -2 4 C-2.99 4 -3.98 4 -5 4 C-5 3.01 -5 2.02 -5 1 C-3 0 -3 0 0 0 Z " fill="#C0424A" transform="translate(393,156)"/>
<path d="M0 0 C0.33 0 0.66 0 1 0 C1.78329059 8.32246251 2.10741447 16.58217636 2.125 24.9375 C2.12951172 25.8246167 2.13402344 26.7117334 2.13867188 27.62573242 C2.1275868 32.52395187 1.82782494 37.17102116 1 42 C-1.96986552 42.89506817 -4.25639788 43.03315169 -7.328125 42.66015625 C-8.12734375 42.56669922 -8.9265625 42.47324219 -9.75 42.37695312 C-10.575 42.27318359 -11.4 42.16941406 -12.25 42.0625 C-13.09046875 41.96259766 -13.9309375 41.86269531 -14.796875 41.75976562 C-16.86536277 41.51295742 -18.93279572 41.25733716 -21 41 C-21 38.69 -21 36.38 -21 34 C-19.68 35.32 -18.36 36.64 -17 38 C-11.72 38.66 -6.44 39.32 -1 40 C-0.67 26.8 -0.34 13.6 0 0 Z " fill="#CB6066" transform="translate(506,190)"/>
<path d="M0 0 C1.42179565 0.03927612 1.42179565 0.03927612 2.87231445 0.0793457 C4.41435547 0.10351562 4.41435547 0.10351562 5.98754883 0.12817383 C7.0594043 0.17006836 8.13125977 0.21196289 9.2355957 0.25512695 C10.31905273 0.27768555 11.40250977 0.30024414 12.51879883 0.32348633 C15.19661475 0.38246906 17.87166597 0.46472388 20.5480957 0.56762695 C21.61561312 5.02223465 21.28105285 6.987356 19.2355957 11.13012695 C18.78571289 12.05954102 18.33583008 12.98895508 17.87231445 13.9465332 C17.43532227 14.81149414 16.99833008 15.67645508 16.5480957 16.56762695 C16.16266602 17.33977539 15.77723633 18.11192383 15.38012695 18.9074707 C15.10555664 19.45532227 14.83098633 20.00317383 14.5480957 20.56762695 C14.2328362 14.57769648 14.86589748 10.93202339 17.5480957 5.56762695 C18.2080957 5.56762695 18.8680957 5.56762695 19.5480957 5.56762695 C19.5480957 4.57762695 19.5480957 3.58762695 19.5480957 2.56762695 C12.6180957 2.56762695 5.6880957 2.56762695 -1.4519043 2.56762695 C-1.1219043 4.21762695 -0.7919043 5.86762695 -0.4519043 7.56762695 C-1.1119043 7.56762695 -1.7719043 7.56762695 -2.4519043 7.56762695 C-3.1119043 8.88762695 -3.7719043 10.20762695 -4.4519043 11.56762695 C-5.1119043 11.23762695 -5.7719043 10.90762695 -6.4519043 10.56762695 C-5.80623703 6.04795606 -4.93919878 1.14344689 0 0 Z " fill="#BC383F" transform="translate(574.451904296875,109.432373046875)"/>
<path d="M0 0 C1.45792884 -0.05399736 2.91642712 -0.09279177 4.375 -0.125 C5.18710937 -0.14820313 5.99921875 -0.17140625 6.8359375 -0.1953125 C9 0 9 0 11 2 C11.24291992 4.04711914 11.24291992 4.04711914 11.23046875 6.53515625 C11.22853516 7.42654297 11.22660156 8.31792969 11.22460938 9.23632812 C11.20624023 10.6352832 11.20624023 10.6352832 11.1875 12.0625 C11.18685547 12.99900391 11.18621094 13.93550781 11.18554688 14.90039062 C11.14019224 21.85980776 11.14019224 21.85980776 10 23 C3.26890078 23.21713223 -3.30803817 22.70046703 -10 22 C-10 21.67 -10 21.34 -10 21 C-4.06 21 1.88 21 8 21 C8 15.06 8 9.12 8 3 C5.69 3 3.38 3 1 3 C0.67 2.01 0.34 1.02 0 0 Z " fill="#BF3D43" transform="translate(459,206)"/>
<path d="M0 0 C0.33 0 0.66 0 1 0 C1.06058594 1.26714844 1.12117188 2.53429687 1.18359375 3.83984375 C1.26808565 5.53906964 1.35272919 7.238288 1.4375 8.9375 C1.47681641 9.76830078 1.51613281 10.59910156 1.55664062 11.45507812 C1.8070071 16.4046307 2.22239005 21.27904143 2.89868164 26.18969727 C3 28 3 28 2 30 C1.95426399 31.74940225 1.96175777 33.5004179 2 35.25 C2.04250913 39.29368098 1.85861702 43.02889628 1 47 C0.01 46.34 -0.98 45.68 -2 45 C-2.34057617 43.02880859 -2.34057617 43.02880859 -2.29296875 40.6484375 C-2.28330078 39.79765625 -2.27363281 38.946875 -2.26367188 38.0703125 C-2.23853516 37.18085938 -2.21339844 36.29140625 -2.1875 35.375 C-2.17396484 34.4778125 -2.16042969 33.580625 -2.14648438 32.65625 C-2.11106925 30.43690211 -2.06168461 28.21874812 -2 26 C-1.34 26 -0.68 26 0 26 C0 17.42 0 8.84 0 0 Z " fill="#BE2B33" transform="translate(486,178)"/>
<path d="M0 0 C1.32 0.33 2.64 0.66 4 1 C4.19335938 1.83144531 4.38671875 2.66289062 4.5859375 3.51953125 C4.84632813 4.60621094 5.10671875 5.69289062 5.375 6.8125 C5.63023437 7.89144531 5.88546875 8.97039062 6.1484375 10.08203125 C6.88732881 13.15533343 6.88732881 13.15533343 9 16 C9.309375 17.19625 9.61875 18.3925 9.9375 19.625 C10.288125 20.73875 10.63875 21.8525 11 23 C11.99 23.33 12.98 23.66 14 24 C14.63662293 32.11694238 14.63662293 32.11694238 12.0625 35.6875 C11.381875 36.450625 10.70125 37.21375 10 38 C9.20309162 41.18762109 9.20309162 41.18762109 9 44 C6.89870721 40.53904717 6.89870721 40.53904717 7.35595703 38.10571289 C7.76850797 36.75686835 8.21594084 35.41791481 8.70654297 34.09545898 C11.14895994 26.56512462 8.21598407 20.99905564 5.125 14.0625 C4.1670509 11.82516795 3.2112075 9.58693273 2.2578125 7.34765625 C1.8261377 6.36804932 1.39446289 5.38844238 0.94970703 4.37915039 C0 2 0 2 0 0 Z " fill="#BF3237" transform="translate(534,144)"/>
<path d="M0 0 C0.33 0.99 0.66 1.98 1 3 C1.66 3.33 2.32 3.66 3 4 C1.38835044 7.78737646 -0.24787001 11.55925077 -1.9375 15.3125 C-4.09905839 20.15305546 -6.06342534 25.06585499 -8 30 C-8.33 30 -8.66 30 -9 30 C-8.13077939 21.51122853 -8.13077939 21.51122853 -7.3125 18.3125 C-6.88592373 15.15583562 -7.84494791 12.92160234 -9 10 C-8.34 9.34 -7.68 8.68 -7 8 C-6.01 9.485 -6.01 9.485 -5 11 C-4.34 10.67 -3.68 10.34 -3 10 C-2.74280183 7.97456444 -2.49157878 5.94649776 -2.34375 3.91015625 C-2 2 -2 2 0 0 Z " fill="#C4333A" transform="translate(553,204)"/>
<path d="M0 0 C2.61112116 2.61112116 2.23783844 4.43499792 2.25224304 7.99034119 C2.24505753 8.81723953 2.23787201 9.64413788 2.23046875 10.49609375 C2.23001053 11.3582399 2.22955231 12.22038605 2.2290802 13.10865784 C2.22605108 14.94720828 2.21814525 16.78575601 2.20581055 18.62426758 C2.18795594 21.36744873 2.18529828 24.11028341 2.18554688 26.85351562 C2.16124787 38.59631062 1.7316625 50.28077069 1 62 C0.67 62 0.34 62 0 62 C-1.09624627 26.51485817 -1.09624627 26.51485817 -1.125 13.5625 C-1.12951172 12.74370361 -1.13402344 11.92490723 -1.13867188 11.08129883 C-1.12879737 7.26439263 -0.9293248 3.70992362 0 0 Z " fill="#D0787B" transform="translate(506,124)"/>
<path d="M0 0 C0 0.66 0 1.32 0 2 C-20.79 1.67 -41.58 1.34 -63 1 C-63 6.94 -63 12.88 -63 19 C-63.33 19 -63.66 19 -64 19 C-64 12.73 -64 6.46 -64 0 C-56.09849064 -0.15322834 -48.19693602 -0.30201443 -40.29519939 -0.4429636 C-36.62618389 -0.50858858 -32.95722593 -0.57616621 -29.28833008 -0.64819336 C-25.74820418 -0.71762088 -22.20801906 -0.78193612 -18.66773415 -0.84269524 C-16.6585244 -0.87851748 -14.64941153 -0.91964503 -12.64030457 -0.96083069 C-11.41926529 -0.98092697 -10.19822601 -1.00102325 -8.94018555 -1.02172852 C-7.32469063 -1.05170677 -7.32469063 -1.05170677 -5.67655945 -1.08229065 C-3 -1 -3 -1 0 0 Z " fill="#B31B21" transform="translate(332,111)"/>
<path d="M0 0 C0.99 0.33 1.98 0.66 3 1 C3 10.24 3 19.48 3 29 C6.63 29 10.26 29 14 29 C14 29.33 14 29.66 14 30 C12.39796533 30.36368892 10.79325797 30.71561952 9.1875 31.0625 C7.84751953 31.35833984 7.84751953 31.35833984 6.48046875 31.66015625 C4 32 4 32 1 31 C-0.11911712 27.64264863 -0.11365586 25.11794614 -0.09765625 21.58203125 C-0.09443359 20.32841797 -0.09121094 19.07480469 -0.08789062 17.78320312 C-0.07951172 16.47287109 -0.07113281 15.16253906 -0.0625 13.8125 C-0.05748317 12.47721519 -0.05292059 11.14192859 -0.04882812 9.80664062 C-0.03702695 6.53771527 -0.02056297 3.26888009 0 0 Z " fill="#B91D25" transform="translate(217,180)"/>
<path d="M0 0 C5.94 0 11.88 0 18 0 C18.02683697 3.14588944 18.04675902 6.29155271 18.0625 9.4375 C18.07087891 10.33533203 18.07925781 11.23316406 18.08789062 12.15820312 C18.09272461 13.43920898 18.09272461 13.43920898 18.09765625 14.74609375 C18.10551147 15.93223267 18.10551147 15.93223267 18.11352539 17.14233398 C18 19 18 19 17 20 C14.46950598 20.07313567 11.96695163 20.09247527 9.4375 20.0625 C8.72658203 20.05798828 8.01566406 20.05347656 7.28320312 20.04882812 C5.52209987 20.03700864 3.76103964 20.01907263 2 20 C2 19.67 2 19.34 2 19 C4.97 19 7.94 19 11 19 C11.33 18.34 11.66 17.68 12 17 C13.32 17 14.64 17 16 17 C16 11.72 16 6.44 16 1 C10.72 1 5.44 1 0 1 C0 0.67 0 0.34 0 0 Z " fill="#BA2027" transform="translate(238,208)"/>
<path d="M0 0 C0.99 0 1.98 0 3 0 C3 1.32 3 2.64 3 4 C2.34 4 1.68 4 1 4 C1 25.45 1 46.9 1 69 C0.67 69 0.34 69 0 69 C0 46.23 0 23.46 0 0 Z " fill="#A71C1F" transform="translate(133,171)"/>
<path d="M0 0 C0.33 0 0.66 0 1 0 C1.96977723 15.34326121 2.11787716 30.62881893 2 46 C1.01 46.495 1.01 46.495 0 47 C-1.46593499 31.42444075 -1.8042904 15.56200472 0 0 Z " fill="#C65255" transform="translate(343,134)"/>
<path d="M0 0 C2 1 2 1 2.8515625 2.92578125 C3.10679687 3.71339844 3.36203125 4.50101563 3.625 5.3125 C4.01558594 6.48232422 4.01558594 6.48232422 4.4140625 7.67578125 C5 10 5 10 5 14 C5.66 14 6.32 14 7 14 C7.29003906 13.11248047 7.29003906 13.11248047 7.5859375 12.20703125 C8.94414719 8.0853355 10.32050585 4.0049476 12 0 C12.66 0.99 13.32 1.98 14 3 C13.34 3 12.68 3 12 3 C11.8453125 4.794375 11.8453125 4.794375 11.6875 6.625 C11.21108648 10.5624176 9.98869284 13.54140375 8 17 C6.125 16.6875 6.125 16.6875 4 16 C3.34 15.01 2.68 14.02 2 13 C1.34 12.67 0.68 12.34 0 12 C0 8.04 0 4.08 0 0 Z " fill="#C43840" transform="translate(552,127)"/>
<path d="M0 0 C3.27066566 -0.08706892 6.54103365 -0.14041241 9.8125 -0.1875 C10.74126953 -0.21263672 11.67003906 -0.23777344 12.62695312 -0.26367188 C13.9659668 -0.27817383 13.9659668 -0.27817383 15.33203125 -0.29296875 C16.56530151 -0.31653442 16.56530151 -0.31653442 17.82348633 -0.34057617 C20.53029156 0.08297888 21.3395242 0.86212953 23 3 C24.23828125 5.77734375 24.23828125 5.77734375 25.3125 8.9375 C25.67988281 9.97777344 26.04726562 11.01804687 26.42578125 12.08984375 C27 15 27 15 26.10546875 17.37890625 C25.74066406 17.91386719 25.37585938 18.44882813 25 19 C22.38592128 13.63809899 20.50771472 8.96564796 20 3 C16.15158652 1.81968762 12.241721 1.66764649 8.25 1.4375 C7.55261719 1.39431641 6.85523437 1.35113281 6.13671875 1.30664062 C4.42468078 1.20110404 2.71236439 1.1001009 1 1 C0.67 2.32 0.34 3.64 0 5 C-0.33 4.01 -0.66 3.02 -1 2 C-0.67 1.34 -0.34 0.68 0 0 Z " fill="#C1515B" transform="translate(112,110)"/>
<path d="M0 0 C0.99 0 1.98 0 3 0 C3 7.59 3 15.18 3 23 C2.34 23 1.68 23 1 23 C-0.2263757 20.54724859 -0.11415314 18.9494219 -0.09765625 16.2109375 C-0.09443359 15.26992187 -0.09121094 14.32890625 -0.08789062 13.359375 C-0.07951172 12.37453125 -0.07113281 11.3896875 -0.0625 10.375 C-0.05798828 9.38242188 -0.05347656 8.38984375 -0.04882812 7.3671875 C-0.03702145 4.9113984 -0.020554 2.45572896 0 0 Z " fill="#C4383E" transform="translate(412,204)"/>
<path d="M0 0 C0.33 0 0.66 0 1 0 C1.33 1.65 1.66 3.3 2 5 C4.76937583 5.52992381 7.54003079 6.0492458 10.3125 6.5625 C11.49102539 6.78969727 11.49102539 6.78969727 12.69335938 7.02148438 C13.45068359 7.16005859 14.20800781 7.29863281 14.98828125 7.44140625 C15.68477783 7.57232666 16.38127441 7.70324707 17.09887695 7.83813477 C19.22346478 8.14527246 19.22346478 8.14527246 22 7 C22.33 7.99 22.66 8.98 23 10 C17.93182839 11.58445945 13.28454402 10.455718 8.1875 9.5625 C7.30384766 9.41490234 6.42019531 9.26730469 5.50976562 9.11523438 C3.33837881 8.75138037 1.16871131 8.37942112 -1 8 C-0.67 5.36 -0.34 2.72 0 0 Z " fill="#B9474C" transform="translate(521,226)"/>
<path d="M0 0 C0.33 0.66 0.66 1.32 1 2 C-8.77092772 3.87387655 -18.10355133 4.22867275 -28 4 C-28 3.01 -28 2.02 -28 1 C-18.76 0.67 -9.52 0.34 0 0 Z " fill="#C2464C" transform="translate(400,130)"/>
<path d="M0 0 C3.05906926 2.51066469 3.75191278 4.90059933 4.6875 8.6875 C5.06455078 10.17830078 5.06455078 10.17830078 5.44921875 11.69921875 C5.63097656 12.45847656 5.81273437 13.21773437 6 14 C6.66 14 7.32 14 8 14 C8 14.66 8 15.32 8 16 C10.64 16 13.28 16 16 16 C14 18 14 18 10.0625 18.4375 C7.8984375 18.3671875 7.8984375 18.3671875 6 18 C1.86612488 13.58103005 0 5.92808001 0 0 Z " fill="#C65862" transform="translate(150,219)"/>
<path d="M0 0 C2.6017482 3.9026223 4.00588964 7.99155489 5.625 12.375 C5.94984375 13.22578125 6.2746875 14.0765625 6.609375 14.953125 C7.06957031 16.19449219 7.06957031 16.19449219 7.5390625 17.4609375 C7.81959473 18.21165527 8.10012695 18.96237305 8.38916016 19.73583984 C9.06508976 22.24126397 9.10643427 24.41655006 9 27 C5.35619329 23.23473306 4.33066564 20.09969453 3.4921875 15.0859375 C3.06013882 12.71234625 3.06013882 12.71234625 1 10 C0.5859375 7.51953125 0.5859375 7.51953125 0.375 4.8125 C0.30023437 3.91144531 0.22546875 3.01039063 0.1484375 2.08203125 C0.09945312 1.39496094 0.05046875 0.70789063 0 0 Z " fill="#C96165" transform="translate(572,178)"/>
<path d="M0 0 C5.94 0.33 11.88 0.66 18 1 C18 1.66 18 2.32 18 3 C17.23816406 3.06058594 16.47632813 3.12117187 15.69140625 3.18359375 C9.44640026 3.69036702 3.22331399 4.2739467 -3 5 C-3.33 4.01 -3.66 3.02 -4 2 C-2.68 2 -1.36 2 0 2 C0 1.34 0 0.68 0 0 Z " fill="#B63A3F" transform="translate(115,238)"/>
<path d="M0 0 C1.32 0.33 2.64 0.66 4 1 C3.67 7.93 3.34 14.86 3 22 C-1.62 22 -6.24 22 -11 22 C-11 21.67 -11 21.34 -11 21 C-6.71 21 -2.42 21 2 21 C1.855625 19.06125 1.71125 17.1225 1.5625 15.125 C1.48128906 14.03445312 1.40007812 12.94390625 1.31640625 11.8203125 C1.16998297 9.05271029 1.16998297 9.05271029 0 7 C0.66 7 1.32 7 2 7 C2 5.35 2 3.7 2 2 C1.34 2 0.68 2 0 2 C0 1.34 0 0.68 0 0 Z " fill="#C22127" transform="translate(243,157)"/>
<path d="M0 0 C3.77196465 0.05176244 7.54161932 0.14681112 11.3125 0.25 C12.9202832 0.27126953 12.9202832 0.27126953 14.56054688 0.29296875 C15.58857422 0.32519531 16.61660156 0.35742188 17.67578125 0.390625 C18.62364502 0.41157227 19.57150879 0.43251953 20.5480957 0.45410156 C23 1 23 1 24.78979492 2.89746094 C25.97627421 4.9587802 26.5836695 6.66854919 27 9 C26.01 8.67 25.02 8.34 24 8 C23.34 6.02 22.68 4.04 22 2 C15.07 2 8.14 2 1 2 C1 2.66 1 3.32 1 4 C1.66 4 2.32 4 3 4 C2.67 4.99 2.34 5.98 2 7 C0 5 0 5 -0.125 2.375 C-0.08375 1.59125 -0.0425 0.8075 0 0 Z " fill="#BB4F55" transform="translate(522,109)"/>
<path d="M0 0 C1.61778428 4.50892135 -0.02043409 7.42414395 -1.80859375 11.6484375 C-3.15446388 14.30487624 -4.65554667 16.15792953 -7 18 C-7 14.17399608 -5.57799896 11.3082814 -4.0625 7.875 C-3.78470703 7.22917969 -3.50691406 6.58335937 -3.22070312 5.91796875 C-1.14395872 1.14395872 -1.14395872 1.14395872 0 0 Z " fill="#C13F46" transform="translate(531,205)"/>
<path d="M0 0 C0.33 0.66 0.66 1.32 1 2 C1.66 2.33 2.32 2.66 3 3 C-2.18678815 14.52164009 -2.18678815 14.52164009 -5 20 C-6.25360525 16.23918426 -5.83902226 13.84551868 -5 10 C-4.01 9.34 -3.02 8.68 -2 8 C-1.21011855 6.04614933 -1.21011855 6.04614933 -0.8125 3.875 C-0.544375 2.59625 -0.27625 1.3175 0 0 Z " fill="#BE4147" transform="translate(586,128)"/>
<path d="M0 0 C3.62484999 -0.08681476 7.24943443 -0.14032721 10.875 -0.1875 C12.42380859 -0.22520508 12.42380859 -0.22520508 14.00390625 -0.26367188 C14.99003906 -0.27333984 15.97617187 -0.28300781 16.9921875 -0.29296875 C17.90339355 -0.3086792 18.81459961 -0.32438965 19.75341797 -0.34057617 C20.49479004 -0.22818604 21.23616211 -0.1157959 22 0 C24.08229108 3.12343663 24.23770457 3.53852922 23.9765625 7.01171875 C23.925 7.76904297 23.8734375 8.52636719 23.8203125 9.30664062 C23.75585938 10.09232422 23.69140625 10.87800781 23.625 11.6875 C23.56828125 12.48478516 23.5115625 13.28207031 23.453125 14.10351562 C23.31183972 16.06973581 23.15720094 18.03498824 23 20 C22.67 20 22.34 20 22 20 C21.505 10.595 21.505 10.595 21 1 C14.07 1 7.14 1 0 1 C0 0.67 0 0.34 0 0 Z " fill="#C36B6F" transform="translate(412,110)"/>
<path d="M0 0 C1.32 0 2.64 0 4 0 C4.20413361 5.73842251 4.27141454 10.60539047 2 16 C1.67 16 1.34 16 1 16 C0.08342019 10.61509359 -0.11138159 5.45769811 0 0 Z " fill="#CC1721" transform="translate(288,151)"/>
<path d="M0 0 C6.75 -0.125 6.75 -0.125 9 1 C9 1.66 9 2.32 9 3 C1.08 3 -6.84 3 -15 3 C-15 2.67 -15 2.34 -15 2 C-10.05 1.67 -5.1 1.34 0 1 C0 0.67 0 0.34 0 0 Z " fill="#DB7278" transform="translate(438,225)"/>
<path d="M0 0 C2.31 0.66 4.62 1.32 7 2 C7 2.33 7 2.66 7 3 C4.69 3 2.38 3 0 3 C0 10.59 0 18.18 0 26 C-0.33 26 -0.66 26 -1 26 C-1.02892857 22.04168191 -1.04677427 18.08339083 -1.0625 14.125 C-1.07087891 12.99707031 -1.07925781 11.86914062 -1.08789062 10.70703125 C-1.09111328 9.63066406 -1.09433594 8.55429688 -1.09765625 7.4453125 C-1.10289307 6.45031738 -1.10812988 5.45532227 -1.11352539 4.43017578 C-1 2 -1 2 0 0 Z " fill="#B12027" transform="translate(364,130)"/>
<path d="M0 0 C1.87560856 2.81341284 3.03975986 5.2968416 4.25 8.4375 C4.62640625 9.38496094 5.0028125 10.33242187 5.390625 11.30859375 C6 14 6 14 5.109375 16.34765625 C4.74328125 16.89292969 4.3771875 17.43820313 4 18 C3.79503906 17.37351563 3.59007812 16.74703125 3.37890625 16.1015625 C3.10949219 15.28429687 2.84007812 14.46703125 2.5625 13.625 C2.29566406 12.81289062 2.02882813 12.00078125 1.75390625 11.1640625 C1.04820271 8.98968201 1.04820271 8.98968201 0 7 C-0.04022391 4.6670134 -0.04320247 2.33293334 0 0 Z " fill="#CB595D" transform="translate(585,212)"/>
<path d="M0 0 C2.02855159 2.02855159 3.00835839 3.33019566 4 6 C3.625 8.75 3.625 8.75 3 11 C-0.3 10.67 -3.6 10.34 -7 10 C-3 8 -3 8 1 8 C0.67 5.36 0.34 2.72 0 0 Z " fill="#B93B48" transform="translate(592,232)"/>
<path d="M0 0 C0.33 0.99 0.66 1.98 1 3 C1.66 3.33 2.32 3.66 3 4 C0.25 10.75 0.25 10.75 -2 13 C-3.37302582 8.88092254 -2.74706646 6.27865333 -2 2 C-1.34 1.34 -0.68 0.68 0 0 Z " fill="#CF4952" transform="translate(553,204)"/>
<path d="M0 0 C0.66 0 1.32 0 2 0 C2 0.66 2 1.32 2 2 C8.6 2.33 15.2 2.66 22 3 C22 3.33 22 3.66 22 4 C15.07 4 8.14 4 1 4 C0.67 2.68 0.34 1.36 0 0 Z " fill="#D58A8A" transform="translate(288,223)"/>
<path d="M0 0 C1.33332095 2.6666419 0.67102033 4.16680303 0 7 C-0.66 7 -1.32 7 -2 7 C-2 9.31 -2 11.62 -2 14 C-2.99 14 -3.98 14 -5 14 C-5.33 14.99 -5.66 15.98 -6 17 C-6.33 16.34 -6.66 15.68 -7 15 C-6.11506725 12.58255127 -5.17630431 10.28074049 -4.125 7.9375 C-3.84269531 7.28716797 -3.56039062 6.63683594 -3.26953125 5.96679688 C-1.15775742 1.15775742 -1.15775742 1.15775742 0 0 Z " fill="#C95E62" transform="translate(540,184)"/>
<path d="M0 0 C0 0.33 0 0.66 0 1 C-10.395 1.495 -10.395 1.495 -21 2 C-21 1.34 -21 0.68 -21 0 C-13.97381022 -1.5056121 -7.10547081 -0.64057643 0 0 Z " fill="#B5353E" transform="translate(250,228)"/>
<path d="M0 0 C5.875 0.875 5.875 0.875 7 2 C8.155 2.144375 9.31 2.28875 10.5 2.4375 C11.655 2.623125 12.81 2.80875 14 3 C14.33 3.66 14.66 4.32 15 5 C13.24929483 4.88529863 11.49942464 4.75780972 9.75 4.625 C8.77546875 4.55539063 7.8009375 4.48578125 6.796875 4.4140625 C4.10366811 4.01534751 2.33036721 3.36492937 0 2 C0 1.34 0 0.68 0 0 Z " fill="#B74447" transform="translate(570,236)"/>
<path d="M0 0 C0.33 0.66 0.66 1.32 1 2 C1.66 2 2.32 2 3 2 C4.25 9.625 4.25 9.625 2 13 C1.47212358 11.02270019 0.95287097 9.04309608 0.4375 7.0625 C0.00244141 5.40927734 0.00244141 5.40927734 -0.44140625 3.72265625 C-0.62574219 2.82417969 -0.81007812 1.92570313 -1 1 C-0.67 0.67 -0.34 0.34 0 0 Z " fill="#C7444A" transform="translate(139,184)"/>
<path d="M0 0 C1.79378179 2.69067269 2.97313958 5.08578257 4.1875 8.0625 C4.55230469 8.94035156 4.91710937 9.81820312 5.29296875 10.72265625 C6 13 6 13 5 15 C2.24671902 12.62216643 1.03055089 10.48801839 0 7 C-0.07646165 4.6679198 -0.09143299 2.33154122 0 0 Z " fill="#CC6568" transform="translate(144,142)"/>
<path d="M0 0 C0.33 0.99 0.66 1.98 1 3 C-7.42857143 4.42857143 -7.42857143 4.42857143 -12 2 C-11.67 1.34 -11.34 0.68 -11 0 C-7.01133873 -0.99716532 -3.9676931 -1.0502717 0 0 Z " fill="#D34448" transform="translate(175,233)"/>
<path d="M0 0 C3.94714588 3.94714588 3.94714588 3.94714588 4.09765625 6.9453125 C4.06510417 8.96354167 4.03255208 10.98177083 4 13 C3.67 13 3.34 13 3 13 C3 11.35 3 9.7 3 8 C2.01 8.33 1.02 8.66 0 9 C0 6.03 0 3.06 0 0 Z " fill="#C43B40" transform="translate(581,205)"/>
<path d="M0 0 C0.144375 0.61875 0.28875 1.2375 0.4375 1.875 C0.93152225 4.03258322 0.93152225 4.03258322 2 6 C0.88292386 9.72358715 0.3270336 10.7819776 -3 13 C-3 11.02 -3 9.04 -3 7 C-2.34 7 -1.68 7 -1 7 C-0.67 4.69 -0.34 2.38 0 0 Z " fill="#CC1E23" transform="translate(541,184)"/>
<path d="M0 0 C3 3.75 3 3.75 3 6 C2.34 6 1.68 6 1 6 C0.34 7.32 -0.32 8.64 -1 10 C-1.66 9.67 -2.32 9.34 -3 9 C-2.44271087 5.65626525 -1.64826111 2.96687001 0 0 Z " fill="#CE5155" transform="translate(571,111)"/>
<path d="M0 0 C0.99 0 1.98 0 3 0 C3 1.32 3 2.64 3 4 C2.34 4 1.68 4 1 4 C1 9.61 1 15.22 1 21 C0.67 21 0.34 21 0 21 C0 14.07 0 7.14 0 0 Z " fill="#B4171F" transform="translate(133,171)"/>
<path d="M0 0 C1.32 0.33 2.64 0.66 4 1 C4.66 5.29 5.32 9.58 6 14 C3.3703954 10.49386053 2.4251739 8.77681984 1.3125 4.75 C1.06113281 3.85796875 0.80976562 2.9659375 0.55078125 2.046875 C0.36902344 1.37140625 0.18726563 0.6959375 0 0 Z " fill="#D06C71" transform="translate(534,144)"/>
<path d="M0 0 C1.485 0.99 1.485 0.99 3 2 C3 3.32 3 4.64 3 6 C3.99 6.33 4.98 6.66 6 7 C6 8.98 6 10.96 6 13 C5.01 13.495 5.01 13.495 4 14 C3.566875 12.3603125 3.566875 12.3603125 3.125 10.6875 C2.18106796 6.95986155 2.18106796 6.95986155 0 4 C0 2.68 0 1.36 0 0 Z " fill="#C2424B" transform="translate(529,129)"/>
<path d="M0 0 C0.30679688 0.62390625 0.61359375 1.2478125 0.9296875 1.890625 C1.94371155 3.97759025 1.94371155 3.97759025 3.125 5.75 C4.46160487 9.18698395 4.12238184 12.32854467 4 16 C0.98656045 12.67148232 0.55332456 10.18117187 0.3125 5.75 C0.24675781 4.67234375 0.18101562 3.5946875 0.11328125 2.484375 C0.07589844 1.66453125 0.03851563 0.8446875 0 0 Z " fill="#BF484E" transform="translate(150,159)"/>
<path d="M0 0 C3 1 3 1 4.125 3 C5.28132277 6.9645352 5.66010538 10.89443077 6 15 C3.61874536 12.61874536 2.99813759 10.66142433 1.875 7.5 C1.52179687 6.5203125 1.16859375 5.540625 0.8046875 4.53125 C0 2 0 2 0 0 Z " fill="#C96166" transform="translate(560,211)"/>
<path d="M0 0 C3.53790403 3.69172595 3.59115883 7.09390595 4 12 C1.02449969 8.9315153 0.03525487 7.53763669 -0.25 3.1875 C-0.1675 2.135625 -0.085 1.08375 0 0 Z " fill="#BB4647" transform="translate(577,193)"/>
<path d="M0 0 C2 1 2 1 2.8515625 3.50390625 C3.10679687 4.51324219 3.36203125 5.52257812 3.625 6.5625 C3.88539063 7.57441406 4.14578125 8.58632812 4.4140625 9.62890625 C4.60742188 10.41136719 4.80078125 11.19382813 5 12 C4.34 12.66 3.68 13.32 3 14 C2.49713066 12.0424015 1.9977901 10.08389623 1.5 8.125 C1.2215625 7.03445312 0.943125 5.94390625 0.65625 4.8203125 C0 2 0 2 0 0 Z " fill="#BF272F" transform="translate(564,215)"/>
<path d="M0 0 C3.45500783 2.66977878 4.05616352 5.86164003 5 10 C5 11.32 5 12.64 5 14 C1.96047287 9.4407093 0 5.52837581 0 0 Z " fill="#C44E51" transform="translate(540,157)"/>
<path d="M0 0 C0.66 0.99 1.32 1.98 2 3 C1.34 3 0.68 3 0 3 C-0.33 5.64 -0.66 8.28 -1 11 C-1.99 11.33 -2.98 11.66 -4 12 C-3.52309796 10.37433394 -3.04340334 8.74948689 -2.5625 7.125 C-2.29566406 6.22007812 -2.02882813 5.31515625 -1.75390625 4.3828125 C-1 2 -1 2 0 0 Z " fill="#C65D61" transform="translate(564,127)"/>
<path d="M0 0 C4.62 0 9.24 0 14 0 C14 0.33 14 0.66 14 1 C12.23103898 1.36340286 10.45973374 1.71540883 8.6875 2.0625 C7.70136719 2.25972656 6.71523437 2.45695313 5.69921875 2.66015625 C3 3 3 3 0 2 C0 1.34 0 0.68 0 0 Z " fill="#C5474B" transform="translate(220,131)"/>
<path d="M0 0 C1.25955231 3.77865693 0.48087189 5.03411786 -0.9375 8.6875 C-1.31777344 9.68136719 -1.69804688 10.67523438 -2.08984375 11.69921875 C-2.39019531 12.45847656 -2.69054687 13.21773437 -3 14 C-3.33 14 -3.66 14 -4 14 C-4.43177893 7.73920552 -3.92739438 4.90924297 0 0 Z " fill="#C55861" transform="translate(593,116)"/>
<path d="M0 0 C2 1 2 1 2.703125 2.77734375 C2.88359375 3.49019531 3.0640625 4.20304688 3.25 4.9375 C3.44078125 5.64777344 3.6315625 6.35804688 3.828125 7.08984375 C3.88484375 7.72019531 3.9415625 8.35054687 4 9 C3.34 9.66 2.68 10.32 2 11 C0.80712589 7.12315913 0 4.08378077 0 0 Z " fill="#CE646B" transform="translate(552,127)"/>
<path d="M0 0 C1.46726798 3.81489674 0.43336419 6.29011622 -1 10 C-1.66 9.67 -2.32 9.34 -3 9 C-2.5020163 5.26512223 -2.12508244 3.18762365 0 0 Z " fill="#B62A2C" transform="translate(568,120)"/>
<path d="M0 0 C0.66 0 1.32 0 2 0 C2 0.99 2 1.98 2 3 C2.66 3 3.32 3 4 3 C4 5.31 4 7.62 4 10 C1.16625119 6.79663178 0.4794463 4.21912747 0 0 Z " fill="#D04F58" transform="translate(525,119)"/>
<path d="M0 0 C0.33 0 0.66 0 1 0 C1.1546875 1.175625 1.1546875 1.175625 1.3125 2.375 C1.77595022 5.33045181 1.77595022 5.33045181 5 7 C4 8 4 8 1.4375 8.0625 C0.633125 8.041875 -0.17125 8.02125 -1 8 C-0.67 5.36 -0.34 2.72 0 0 Z " fill="#C15B67" transform="translate(521,226)"/>
<path d="M0 0 C0.66 0.33 1.32 0.66 2 1 C1.34 2.65 0.68 4.3 0 6 C-1.32 5.67 -2.64 5.34 -4 5 C-2.25 1.125 -2.25 1.125 0 0 Z " fill="#C22E36" transform="translate(526,221)"/>
<path d="M0 0 C2.875 -0.125 2.875 -0.125 6 0 C6.66 0.66 7.32 1.32 8 2 C6.02 2 4.04 2 2 2 C1.34 3.32 0.68 4.64 0 6 C0 4.02 0 2.04 0 0 Z " fill="#CA1F25" transform="translate(308,130)"/>
<path d="M0 0 C0.99 0.99 1.98 1.98 3 3 C2.6875 6.6875 2.6875 6.6875 2 10 C1.34 9.67 0.68 9.34 0 9 C0 6.03 0 3.06 0 0 Z " fill="#C15257" transform="translate(505,222)"/>
<path d="M0 0 C1.32 0.33 2.64 0.66 4 1 C4 4.63 4 8.26 4 12 C3.67 12 3.34 12 3 12 C3 9.03 3 6.06 3 3 C2.01 3 1.02 3 0 3 C0 2.01 0 1.02 0 0 Z " fill="#C32830" transform="translate(388,157)"/>
<path d="M0 0 C0.99 0.33 1.98 0.66 3 1 C3 3.31 3 5.62 3 8 C0.7522025 5.94766315 -0.0022242 4.99332739 -1 2 C-0.67 1.34 -0.34 0.68 0 0 Z " fill="#BB2529" transform="translate(147,156)"/>
<path d="M0 0 C0.66 0 1.32 0 2 0 C2.66 2.31 3.32 4.62 4 7 C3.34 7.66 2.68 8.32 2 9 C0.50178941 5.62902617 0 3.79557881 0 0 Z " fill="#C44C4F" transform="translate(135,120)"/>
<path d="M0 0 C0.66 0.33 1.32 0.66 2 1 C2 1.66 2 2.32 2 3 C-1.98196457 4.05404945 -4.98195309 3.84098656 -9 3 C-9 2.67 -9 2.34 -9 2 C-6.94921875 1.77213542 -4.8984375 1.54427083 -2.84765625 1.31640625 C-0.98859771 1.18113386 -0.98859771 1.18113386 0 0 Z " fill="#DE888B" transform="translate(542,233)"/>
<path d="M0 0 C1.26706235 3.80118706 0.57172296 5.3850372 -1 9 C-1.99 9.33 -2.98 9.66 -4 10 C-2.8905928 6.51329166 -1.73662334 3.22515763 0 0 Z " fill="#CB6670" transform="translate(527,213)"/>
<path d="M0 0 C2 2 2 2 2.1953125 3.9453125 C2.13020833 5.96354167 2.06510417 7.98177083 2 10 C0.00902154 7.01353231 -0.94124926 4.40312738 -2 1 C-1.34 0.67 -0.68 0.34 0 0 Z " fill="#C0333D" transform="translate(136,174)"/>
<path d="M0 0 C1.5 1 1.5 1 3 3 C3.27345479 5.71846235 3.13491285 8.25677199 3 11 C0.87953208 7.46588679 0.46800711 4.05606165 0 0 Z " fill="#D58185" transform="translate(150,219)"/>
<path d="M0 0 C1.32 0.33 2.64 0.66 4 1 C4 2.98 4 4.96 4 7 C3.34 7 2.68 7 2 7 C2 5.35 2 3.7 2 2 C1.34 2 0.68 2 0 2 C0 1.34 0 0.68 0 0 Z " fill="#B74345" transform="translate(243,157)"/>
<path d="M0 0 C0.33 0.66 0.66 1.32 1 2 C1.66 2.33 2.32 2.66 3 3 C2.01 5.31 1.02 7.62 0 10 C-0.33 10 -0.66 10 -1 10 C-0.67 6.7 -0.34 3.4 0 0 Z " fill="#D05355" transform="translate(586,128)"/>
<path d="M0 0 C0.99 0.33 1.98 0.66 3 1 C2.67 3.64 2.34 6.28 2 9 C1.34 9 0.68 9 0 9 C0.020625 8.21625 0.04125 7.4325 0.0625 6.625 C0.18684063 4.01885039 0.18684063 4.01885039 -1 2 C-0.67 1.34 -0.34 0.68 0 0 Z " fill="#C6252E" transform="translate(587,121)"/>
</svg>
